PathFileType	4	(X/Y/Z)	Patient4_TMGait_0pt2_01_right_13.trc.trc
DataRate	CameraRate	NumFrames	NumMarkers	Units	OrigDataRate	OrigDataStartFrame	OrigNumFrames
40.114613180516	40.114613180516	4	33	mm	40.114613180516	1	       141
Frame#	Time	Sacral			L.Shoulder			Chest			R.Shoulder			Neck			R.ASIS			L.ASIS			R.Thigh.Superior			R.Thigh.Lateral			R.Thigh.Inferior			R.Patella			L.Thigh.Superior			L.Thigh.Lateral			L.Thigh.Inferior			L.Patella			L.Shank.Superior			L.Shank.Lateral			L.Shank.Inferior			R.Shank.Superior			R.Shank.Lateral			R.Shank.Inferior			R.Heel			R.Midfoot.Superior			R.Midfoot.Lateral			R.Toe			L.Heel			L.Midfoot.Lateral			L.Midfoot.Superior			L.Toe			L.Elbow			L.Wrist			R.Elbow			R.Wrist			
		X1	Y1	Z1	X2	Y2	Z2	X3	Y3	Z3	X4	Y4	Z4	X5	Y5	Z5	X6	Y6	Z6	X7	Y7	Z7	X8	Y8	Z8	X9	Y9	Z9	X10	Y10	Z10	X11	Y11	Z11	X12	Y12	Z12	X13	Y13	Z13	X14	Y14	Z14	X15	Y15	Z15	X16	Y16	Z16	X17	Y17	Z17	X18	Y18	Z18	X19	Y19	Z19	X20	Y20	Z20	X21	Y21	Z21	X22	Y22	Z22	X23	Y23	Z23	X24	Y24	Z24	X25	Y25	Z25	X26	Y26	Z26	X27	Y27	Z27	X28	Y28	Z28	X29	Y29	Z29	X30	Y30	Z30	X31	Y31	Z31	X32	Y32	Z32	X33	Y33	Z33	

1	28.270000000000	782.882288887624	998.353979551286	428.338830133195	949.014826903976	1430.731862799009	247.180035421849	1060.485606403633	1358.132448415286	400.711495437289	988.686480427222	1425.745646763373	580.220862872736	942.423930101714	1488.768117366161	406.850194634210	1015.367553726336	930.646984417502	535.053673561897	993.399216850182	958.865407272691	262.906323140462	1064.391810284302	730.878134543900	500.542444897222	994.447954392735	618.717598527492	567.018419456092	1070.895380155430	564.736831269175	484.230301804981	1067.069129813484	455.398188780979	505.995929691922	1057.900584837959	751.678242360578	306.601092004582	981.954230160337	622.299853965361	255.873504476745	1068.537911261380	556.337346859534	328.927369803959	1072.777514259640	483.921258484698	341.582023946778	1039.906905055687	409.195909802052	337.247536987392	946.841749610766	298.064604258918	286.233382662164	982.315090821574	188.132638165490	366.687525235442	989.568963619832	389.145829851314	519.160398247438	866.411077574822	351.488065833158	577.418802733282	858.090360401175	238.516495878287	535.220221151107	659.182151162272	160.856520040256	494.667959618639	827.066426967217	128.513576338265	565.724388299218	713.841475414131	124.042849132435	584.134120591697	894.708637938734	34.020103056020	620.489510084214	841.599331040057	38.677812548180	403.894822630645	920.826462709368	36.197013524712	328.311245528150	1003.035336186091	95.915934274222	360.447824210780	1132.577430393842	42.652238990480	340.890586100651	920.371203133878	1083.406226920046	115.292136364557	1036.784681760136	849.010553722097	143.273074777261	1134.590860986894	1098.939900041587	664.099464305269	1374.810556919771	999.101820548399	630.968953928065	
2	28.294928571429	781.000761394179	995.666470020664	424.336469590884	948.918962088812	1429.132576981823	246.327223070961	1058.437711975739	1356.127282001372	400.950127850478	984.394836704644	1422.607988861569	580.056056342341	941.109775729420	1486.637163042391	406.059696583054	1012.819367662341	928.444812752326	532.414358374479	993.757551899752	957.246852399301	260.857474634623	1066.511352790305	731.477321459669	498.172094077826	999.518271238989	618.107536424168	564.253749351908	1076.931667394003	565.808874024470	480.925663881178	1075.048159750977	455.669826952119	502.652556975844	1058.770966286634	750.245219143858	304.745316272581	983.440435671591	620.369205581826	254.470971409853	1070.207221701583	554.888700673152	328.088319220050	1074.743596718313	482.111076973137	341.014761978491	1040.514856616504	407.199117489544	336.923233659741	946.013612647004	297.294804127582	285.724634107694	979.343930547511	187.149201967639	366.564623076578	996.971340352354	389.017168706366	515.110064211756	873.026957577027	352.158759235853	572.344062624689	864.019889828027	239.428175625263	529.824849502734	664.223918953985	162.929637695043	489.009018502924	832.688171268367	129.807822291470	558.842145608970	719.397558608904	124.971005233385	577.731488594918	900.721852950566	33.801031927560	611.983024693270	836.775987501129	38.778003412831	403.767807175880	916.039748347238	36.199913713544	328.234432591257	998.324121468646	95.783152706541	360.429795094151	1127.823009077994	42.302427105624	340.845246918629	928.488991169157	1081.764575261253	112.866016011281	1054.393134155917	852.998968411954	140.963096009243	1111.761139112303	1088.315141806631	665.065530748221	1336.823406996071	965.341771345372	637.290151606802	
3	28.319857142857	779.039019760914	993.144996973447	420.276663925534	949.068093837936	1427.666395059602	245.512792936708	1056.407802667617	1354.230718311568	401.351362633072	979.874861399599	1419.601604860261	579.947120328685	939.897547053204	1484.647362572348	405.292370672290	1010.153679956289	926.524099585676	530.103742139333	994.134589030374	955.730948158110	258.894933793171	1068.431731341234	732.283575415369	495.844458657772	1004.507789326874	617.762127953352	561.693583619710	1082.732720947126	567.109146050856	477.709565734035	1082.953260064812	456.291472021539	499.472145772659	1059.431515936881	748.813583798794	303.072100156730	984.662953728703	618.494358342046	253.170372473013	1071.479387612331	553.446466760432	327.426467861752	1076.250316653906	480.332892480898	340.622856923835	1040.703953342662	405.254843805371	336.723874106156	944.855067406141	296.540433304231	285.288905485630	976.064890613343	186.189703700252	366.492868687351	1004.551321812388	389.083509170794	511.463029451270	880.030228733436	352.590560303355	567.853731158119	870.744387644003	240.007888788392	525.147203493008	670.361706983157	163.778838723113	484.296162488586	839.524494791775	130.687301252828	552.865669385357	726.229645193795	125.084971194243	572.333540703109	908.374538306718	33.651766193193	604.562230141182	831.688823824548	38.871537061119	403.645359011125	910.996018314679	36.204040087822	328.157749903184	993.349154160479	95.652436840307	360.424342686283	1122.808855764792	41.965638156094	340.801974096788	937.052545682714	1080.385226382316	110.351382896364	1073.024958247108	857.871369518876	138.586358872957	1087.054645500793	1078.043220153732	666.260772611693	1295.237176158247	931.687691172102	643.805156233767	
4	28.344785714286	777.037169080413	990.992600019396	416.319054425429	949.570745187342	1426.463651175174	244.807742555817	1054.497825725634	1352.576747796978	401.978974376349	975.249145022695	1416.935205388513	579.927090256761	938.895897365625	1482.956493133829	404.605853677468	1007.404906666924	925.065642796300	528.293951158167	994.476899745506	954.417696279072	257.167761851875	1069.961086153051	733.361291483896	493.735987879438	1009.106079506509	617.818362997779	559.560554893228	1087.931813522719	568.689772299599	474.837363617339	1090.393450478372	457.404521628886	496.724098592770	1059.740423658258	747.452414235383	301.725725381142	985.423873986549	616.796830464309	252.066194607468	1072.102189558866	552.085391881649	327.028362619874	1077.007815090197	478.689743375213	340.478238852986	1040.266253114263	403.484427273545	336.693734765659	943.257959279074	295.847875521895	284.964639171757	972.483808718349	185.313407604716	366.488571961051	1012.047515510066	389.448389169839	508.571043733196	887.298853163220	352.680730768996	564.421062541971	878.325267111974	240.140236031766	521.692924544876	677.849232628767	162.925908314699	481.135580511638	847.816773788363	130.999438102156	548.418307821608	734.631098589709	124.096793838115	568.587624918994	918.036412963886	33.663801200971	598.949211481062	826.453816245239	38.952203753232	403.532896523255	905.810302710198	36.209422713195	328.084287067577	988.220107219234	95.531121467092	360.433975473365	1117.647526555287	41.661341646375	340.763763417968	945.876253844381	1079.460978021710	107.829179070410	1092.260637464203	863.845619814089	136.248438139832	1060.861329495181	1068.832705163122	667.695763830250	1250.563038047804	899.883589401649	650.263650644920	
